# xmcd
#
# Track frame offsets:
#	150
#	9388
#	22508
#	31613
#	47883
#	58651
#	75953
#	89606
#	101376
#	113160
#	125815
#	136172
#	147753
#	159146
#	172130
#	184064
#	195317
#	206060
#	224255
#	235276
#
# Disc length: 3374 seconds
#
# Revision: 0
# Processed by: cddbd v1.5.2PL0 Copyright (c) Steve Scherf et al.
# Submitted via: EZCDAudioConverter 2.4.0.1
#
DISCID=000d2c14
DTITLE=Various Artist - American Heartland Legends of Country - CD3
DYEAR=2014
DGENRE=Country
TTITLE0=Chet Atkins - Yakety Axe
TTITLE1=Hank Williams with his Drifting Cowboys - Hey good Lokkin
TTITLE2=Frankie Lane with Jimmie Carroll and his orchestra - Rawhide
TTITLE3=The Charlie Daniels Band - The Devil went down to Georgia
TTITLE4=Lester Flatt - Foggy Mountain breakdown
TTITLE5=Ricky Skaggs - Country Boy
TTITLE6=Jimmy Dean - Big Bad John
TTITLE7=Tennessee Ernie Ford - Sixteen Tons
TTITLE8=Johnny Paycheck - Take this job and shove it
TTITLE9=Hank Snow and his Rainbow Ranch Boys - I'm movin' on
TTITLE10=Connie Smith - Once a day
TTITLE11=Dottie West - Here comes my baby
TTITLE12=Lefty Frizzell - I love you mostly
TTITLE13=Marty Robbins - Devil Woman
TTITLE14=Eddy Arnold - Make the world go away
TTITLE15=Don Gibson - Oh lonesome me
TTITLE16=Hank Locklin - Please help me, I'm falling
TTITLE17=Kris Kristofferson - Me and Bobby McGee
TTITLE18=Roger Miller - King of the road
TTITLE19=Jerry Jeff Walker - Mr Bojangles
EXTD=
EXTT0=
EXTT1=
EXTT2=
EXTT3=
EXTT4=
EXTT5=
EXTT6=
EXTT7=
EXTT8=
EXTT9=
EXTT10=
EXTT11=
EXTT12=
EXTT13=
EXTT14=
EXTT15=
EXTT16=
EXTT17=
EXTT18=
EXTT19=
PLAYORDER=
